<mxfile host="Electron" modified="2024-03-26T03:29:15.692Z" agent="Mozilla/5.0 (Macintosh; Intel Mac OS X 10_15_7) AppleWebKit/537.36 (KHTML, like Gecko) draw.io/24.1.0 Chrome/120.0.6099.109 Electron/28.1.0 Safari/537.36" etag="Hns0Pl-W1OiUph95Nl5M" version="24.1.0" type="device">
  <diagram name="Page-1" id="bD0IqmXJnWUJFcVXPiYF">
    <mxGraphModel dx="1174" dy="809" grid="1" gridSize="10" guides="1" tooltips="1" connect="1" arrows="1" fold="1" page="1" pageScale="1" pageWidth="1600" pageHeight="1200" math="0" shadow="0">
      <root>
        <mxCell id="0" />
        <mxCell id="1" parent="0" />
        <mxCell id="9WA2omqz3V34yPvR_A12-12" value="" style="shape=mxgraph.signs.transportation.car_3;html=1;pointerEvents=1;fillColor=#ffe6cc;strokeColor=#d79b00;verticalLabelPosition=bottom;verticalAlign=top;align=center;flipH=1;fontSize=11;" parent="1" vertex="1">
          <mxGeometry x="550" y="240" width="182.37" height="70" as="geometry" />
        </mxCell>
        <mxCell id="9WA2omqz3V34yPvR_A12-1" value="" style="shape=mxgraph.signs.transportation.car_3;html=1;pointerEvents=1;fillColor=#ffe6cc;strokeColor=#d79b00;verticalLabelPosition=bottom;verticalAlign=top;align=center;flipH=1;opacity=35;" parent="1" vertex="1">
          <mxGeometry x="130" y="240" width="182.37" height="70" as="geometry" />
        </mxCell>
        <mxCell id="9WA2omqz3V34yPvR_A12-2" value="Controller" style="rounded=0;labelPosition=center;verticalLabelPosition=bottom;align=center;verticalAlign=top;fontSize=16;strokeWidth=2;" parent="1" vertex="1">
          <mxGeometry x="200" y="400" width="200" height="150" as="geometry" />
        </mxCell>
        <mxCell id="9WA2omqz3V34yPvR_A12-3" value="time: 0:31.14" style="rounded=0;fillColor=#dae8fc;strokeColor=#6c8ebf;align=left;labelPosition=center;verticalLabelPosition=middle;verticalAlign=bottom;strokeWidth=2;" parent="1" vertex="1">
          <mxGeometry x="220" y="430" width="120" height="30" as="geometry" />
        </mxCell>
        <mxCell id="9WA2omqz3V34yPvR_A12-4" value="" style="ellipse;whiteSpace=wrap;html=1;aspect=fixed;strokeWidth=2;" parent="1" vertex="1">
          <mxGeometry x="360" y="430" width="30" height="30" as="geometry" />
        </mxCell>
        <mxCell id="9WA2omqz3V34yPvR_A12-5" value="Responder" style="rounded=0;labelPosition=center;verticalLabelPosition=bottom;align=center;verticalAlign=top;fontSize=16;strokeWidth=2;" parent="1" vertex="1">
          <mxGeometry x="620" y="400" width="200" height="150" as="geometry" />
        </mxCell>
        <mxCell id="9WA2omqz3V34yPvR_A12-9" style="edgeStyle=orthogonalEdgeStyle;rounded=0;orthogonalLoop=1;jettySize=auto;html=1;endArrow=none;endFill=0;strokeWidth=3;fillColor=#f8cecc;strokeColor=#b85450;" parent="1" source="9WA2omqz3V34yPvR_A12-8" target="9WA2omqz3V34yPvR_A12-2" edge="1">
          <mxGeometry relative="1" as="geometry" />
        </mxCell>
        <mxCell id="9WA2omqz3V34yPvR_A12-8" value="Laser" style="rounded=0;labelPosition=center;verticalLabelPosition=top;align=center;verticalAlign=bottom;fontSize=16;strokeWidth=2;" parent="1" vertex="1">
          <mxGeometry x="245" y="70" width="110" height="90" as="geometry" />
        </mxCell>
        <mxCell id="9WA2omqz3V34yPvR_A12-11" style="edgeStyle=orthogonalEdgeStyle;rounded=0;orthogonalLoop=1;jettySize=auto;html=1;strokeColor=#b85450;strokeWidth=3;align=center;verticalAlign=middle;fontFamily=Helvetica;fontSize=11;fontColor=default;labelBackgroundColor=default;endArrow=none;endFill=0;fillColor=#f8cecc;" parent="1" source="9WA2omqz3V34yPvR_A12-10" target="9WA2omqz3V34yPvR_A12-5" edge="1">
          <mxGeometry relative="1" as="geometry" />
        </mxCell>
        <mxCell id="9WA2omqz3V34yPvR_A12-10" value="Laser" style="rounded=0;labelPosition=center;verticalLabelPosition=top;align=center;verticalAlign=bottom;fontSize=16;strokeWidth=2;" parent="1" vertex="1">
          <mxGeometry x="665" y="70" width="110" height="90" as="geometry" />
        </mxCell>
        <mxCell id="9WA2omqz3V34yPvR_A12-14" value="" style="endArrow=classic;html=1;rounded=0;strokeWidth=2;" parent="1" edge="1">
          <mxGeometry width="50" height="50" relative="1" as="geometry">
            <mxPoint x="370" y="280" as="sourcePoint" />
            <mxPoint x="510" y="280" as="targetPoint" />
          </mxGeometry>
        </mxCell>
      </root>
    </mxGraphModel>
  </diagram>
</mxfile>
